<?xml version="1.0"?>
<svg xmlns="http://www.w3.org/2000/svg" id="Layer_2" data-name="Layer 2" viewBox="0 0 128 128" width="512px" height="512px" class=""><g><title class="active-path">FACTORY</title><path d="M126.25,79.17h-6.58l-8.59-55.46V17.67a3.515,3.515,0,0,1,1.44-2.83l3-2.19A7,7,0,0,0,111.39,0H22.87a8.55,8.55,0,0,0-8.25,10.77,8.561,8.561,0,0,0,8.25,6.31H26.6a3.483,3.483,0,0,1,3.35,2.49,9.66,9.66,0,0,0,9.32,6.93h4.64a3.472,3.472,0,0,1,2.47,1.02l.52.52a18.215,18.215,0,0,0,12.97,5.38,18.53,18.53,0,0,0,10.9-3.59l5.05-3.73a3.425,3.425,0,0,1,2.07-.68h6.77L76.33,79.17H71V61.7a1.75,1.75,0,0,0-2.46-1.6L48.5,69V61.7a1.75,1.75,0,0,0-2.46-1.6L26,69V61.7a1.75,1.75,0,0,0-2.46-1.6l-22.5,10A1.745,1.745,0,0,0,0,71.7v54.55A1.746,1.746,0,0,0,1.75,128h124.5a1.746,1.746,0,0,0,1.75-1.75V80.92A1.746,1.746,0,0,0,126.25,79.17ZM77.89,21.92a6.977,6.977,0,0,0-4.15,1.37l-5.05,3.72a14.918,14.918,0,0,1-8.82,2.91,14.752,14.752,0,0,1-10.49-4.35l-.52-.52A6.959,6.959,0,0,0,43.91,23H39.27a6.2,6.2,0,0,1-5.97-4.43,6.966,6.966,0,0,0-6.7-4.99H22.87A5.044,5.044,0,0,1,18,9.86,5.053,5.053,0,0,1,22.87,3.5h88.52a3.505,3.505,0,0,1,2.07,6.33l-3,2.18a7.043,7.043,0,0,0-2.88,5.66v4.25Zm31.35,13.33.76,5.17H86l.76-5.17Zm-22.02-3.5.98-6.33h19.6l.98,6.33ZM85.33,43.92h25.34l5.45,35.25H79.88ZM48.5,72.83l19-8.44V79.17h-19Zm-22.5,0,19-8.44V79.17H26Zm-22.5,0,19-8.44V79.17H3.5ZM49.92,124.5H16.08V121H49.92Zm0-7H16.08V114H49.92Zm0-7H16.08V107H49.92Zm0-7H16.08V100H49.92Zm74.58,21H53.42V98.25a1.752,1.752,0,0,0-1.75-1.75H14.33a1.752,1.752,0,0,0-1.75,1.75V124.5H3.5V82.67h121Z" data-original="#000000" class="active-path" fill="#FF8B00"/><path d="M84.917,98.25a1.75,1.75,0,0,0-1.75-1.75H63a1.75,1.75,0,0,0-1.75,1.75v9.667a1.75,1.75,0,0,0,1.75,1.75H83.167a1.75,1.75,0,0,0,1.75-1.75Zm-3.5,7.917H64.75V100H81.417Z" data-original="#000000" class="active-path" fill="#FF8B00"/><path d="M116.917,107.917V98.25a1.75,1.75,0,0,0-1.75-1.75H95a1.75,1.75,0,0,0-1.75,1.75v9.667a1.75,1.75,0,0,0,1.75,1.75h20.167A1.75,1.75,0,0,0,116.917,107.917Zm-3.5-1.75H96.75V100h16.667Z" data-original="#000000" class="active-path" fill="#FF8B00"/></g> </svg>
