<?xml version="1.0"?>
<svg xmlns="http://www.w3.org/2000/svg" id="Layer_2" height="512px" viewBox="0 0 128 128" width="512px" data-name="Layer 2" class=""><g><path d="m87.083 48.353 9.7 2.61 2.61 9.7a1.75 1.75 0 0 0 3.38 0l2.611-9.7 9.7-2.61a1.75 1.75 0 0 0 0-3.38l-9.7-2.61-2.611-9.7a1.75 1.75 0 0 0 -3.38 0l-2.61 9.7-9.7 2.61a1.75 1.75 0 0 0 0 3.38zm11.579-2.873a1.751 1.751 0 0 0 1.238-1.234l1.183-4.394 1.183 4.394a1.751 1.751 0 0 0 1.234 1.234l4.393 1.183-4.393 1.183a1.751 1.751 0 0 0 -1.235 1.235l-1.183 4.394-1.182-4.394a1.751 1.751 0 0 0 -1.235-1.235l-4.393-1.183z" data-original="#000000" class="active-path" data-old_color="#000000" fill="#FF8B00"/><path d="m12.861 48.353 9.7 2.61 2.61 9.7a1.75 1.75 0 0 0 3.38 0l2.61-9.7 9.7-2.61a1.75 1.75 0 0 0 0-3.38l-9.7-2.61-2.61-9.7a1.75 1.75 0 0 0 -3.38 0l-2.61 9.7-9.7 2.61a1.75 1.75 0 0 0 0 3.38zm11.58-2.873a1.751 1.751 0 0 0 1.235-1.235l1.183-4.393 1.183 4.393a1.751 1.751 0 0 0 1.235 1.235l4.393 1.183-4.393 1.183a1.751 1.751 0 0 0 -1.235 1.235l-1.183 4.393-1.183-4.393a1.751 1.751 0 0 0 -1.235-1.235l-4.393-1.183z" data-original="#000000" class="active-path" data-old_color="#000000" fill="#FF8B00"/><path d="m44.238 30.837 14.214 3.827 3.827 14.214a1.75 1.75 0 0 0 3.38 0l3.827-14.214 14.214-3.827a1.75 1.75 0 0 0 0-3.38l-14.215-3.826-3.826-14.214a1.75 1.75 0 0 0 -3.38 0l-3.827 14.214-14.214 3.827a1.75 1.75 0 0 0 0 3.38zm16.1-4.089a1.751 1.751 0 0 0 1.235-1.235l2.4-8.911 2.4 8.911a1.751 1.751 0 0 0 1.227 1.236l8.911 2.4-8.911 2.4a1.751 1.751 0 0 0 -1.235 1.235l-2.4 8.911-2.4-8.911a1.751 1.751 0 0 0 -1.235-1.235l-8.911-2.4z" data-original="#000000" class="active-path" data-old_color="#000000" fill="#FF8B00"/><path d="m127.86 117.52-6.67-18.01a1.754 1.754 0 0 0 -1.64-1.14h-12.88l-6.25-16.86a1.759 1.759 0 0 0 -1.64-1.15h-12.82l-6.25-16.86a1.74 1.74 0 0 0 -1.64-1.14h-28.14a1.74 1.74 0 0 0 -1.64 1.14l-6.25 16.86h-12.88a1.749 1.749 0 0 0 -1.64 1.15l-6.25 16.86h-12.82a1.754 1.754 0 0 0 -1.64 1.14l-6.67 18.01a1.771 1.771 0 0 0 .2 1.61 1.764 1.764 0 0 0 1.44.75h124.44a1.746 1.746 0 0 0 1.64-2.36zm-30.3-33.66 5.37 14.51h-36.45l5.38-14.51zm-33.59 11.22-4.16-11.22h8.31zm-12.82-29.22h25.7l5.38 14.5h-36.46zm-20.77 18h25.7l5.37 14.51h-36.45zm-26.08 32.52 5.37-14.51h25.7l5.38 14.51zm34.8-14.51h8.32l-4.16 11.22zm6.67 14.51 5.38-14.51h25.7l5.38 14.51zm34.81-14.51h8.32l-4.16 11.22zm6.67 14.51 5.38-14.51h25.7l5.37 14.51z" data-original="#000000" class="active-path" data-old_color="#000000" fill="#FF8B00"/></g> </svg>
