<?xml version="1.0"?>
<svg xmlns="http://www.w3.org/2000/svg" id="Layer_2" data-name="Layer 2" viewBox="0 0 128 128" width="512px" height="512px" class=""><g><title class="active-path">KILN</title><path d="M126.25,29.88H79.33V18.21h5a1.752,1.752,0,0,0,1.75-1.75V4.38a1.754,1.754,0,0,0-1.75-1.76H43.67a1.754,1.754,0,0,0-1.75,1.76V16.46a1.752,1.752,0,0,0,1.75,1.75h5V29.88H1.75A1.743,1.743,0,0,0,0,31.62v92a1.754,1.754,0,0,0,1.75,1.76h124.5a1.754,1.754,0,0,0,1.75-1.76v-92A1.743,1.743,0,0,0,126.25,29.88ZM45.42,14.71V6.12H82.58v8.59Zm30.41,3.5V29.88H52.17V18.21ZM3.5,89.88H20.75v8.33H3.5ZM74.85,54.96l.42,1.18A15.124,15.124,0,0,1,73.55,69.7a28.046,28.046,0,0,1-2.16-17.35l.33-1.64a1.753,1.753,0,0,0-.86-1.86,1.735,1.735,0,0,0-2.03.23l-5.74,5.19a31.28,31.28,0,0,0-7.76,10.8l-1.61,3.71A28.323,28.323,0,0,0,41.27,55.9l-4.46-2.33a1.753,1.753,0,0,0-2.37,2.35l.17.32a14.964,14.964,0,0,1-.53,14.53l-7.54-5.55a1.747,1.747,0,0,0-2.69.82,19.2,19.2,0,0,1-10.3,11.13l-.05.02V43.38h101V75.27l-1.24-.38a14.848,14.848,0,0,1-9.27-8.14l-2.39-5.34a1.78,1.78,0,0,0-1.73-1.03,1.729,1.729,0,0,0-1.55,1.27,14.949,14.949,0,0,1-6.76,8.78,18.474,18.474,0,0,0-7-12l-6.99-5.44a1.75,1.75,0,0,0-2.72,1.97ZM14.96,80.37a22.723,22.723,0,0,0,11.3-11.01l7.2,5.3a1.753,1.753,0,0,0,2.42-.34,18.454,18.454,0,0,0,3.36-15.53l.42.21A24.892,24.892,0,0,1,51.95,73.88a1.75,1.75,0,0,0,3.28.19l3.31-7.61a27.939,27.939,0,0,1,6.9-9.6l2.05-1.85a31.5,31.5,0,0,0,4.25,18.75,1.752,1.752,0,0,0,2.83.27l.47-.55a18.61,18.61,0,0,0,4.47-14.55l2.9,2.26a15.035,15.035,0,0,1,5.84,11.93,1.75,1.75,0,0,0,2.38,1.64,18.453,18.453,0,0,0,9.43-8.23l.74,1.65a18.35,18.35,0,0,0,11.44,10.06l2.26.68v7.46H13.5V81.02Zm88.79,17.84H86.5V89.88h17.25Zm10.37,3.5v8.33H96.88v-8.33Zm-89.87-3.5V89.88H41.5v8.33Zm6.87,3.5v8.33H13.88v-8.33Zm3.5,0H51.88v8.33H34.62ZM45,98.21V89.88H62.25v8.33Zm10.38,3.5H72.62v8.33H55.38Zm10.37-3.5V89.88H83v8.33Zm10.37,3.5H93.38v8.33H76.12Zm-72.62,0h6.88v8.33H3.5Zm17.25,20.17H3.5v-8.34H20.75Zm20.75,0H24.25v-8.34H41.5Zm20.75,0H45v-8.34H62.25Zm20.75,0H65.75v-8.34H83Zm20.75,0H86.5v-8.34h17.25Zm20.75,0H107.25v-8.34H124.5Zm0-11.84h-6.88v-8.33h6.88Zm0-11.83H107.25V89.88H124.5Zm0-11.83H118V41.62a1.743,1.743,0,0,0-1.75-1.74H11.75A1.743,1.743,0,0,0,10,41.62V86.38H3.5v-53h121Z" data-original="#000000" class="active-path" fill="#FF8B00"/></g> </svg>
