<?xml version="1.0"?>
<svg xmlns="http://www.w3.org/2000/svg" id="Layer_2" height="512px" viewBox="0 0 128 128" width="512px" data-name="Layer 2" class=""><g><path d="m65.1 38.977a1.75 1.75 0 0 0 -2.475 2.475l6.61 6.611a1.75 1.75 0 0 0 2.475-2.475z" data-original="#000000" class="active-path" data-old_color="#000000" fill="#FF8B00"/><path d="m126.25 47.82h-6.4a1.749 1.749 0 0 0 -1.24.52l-9 9h-16.65a1.739 1.739 0 0 0 -1.24.51l-2.76 2.76a66.619 66.619 0 0 0 -8.48-14.27l.59-.59a1.744 1.744 0 0 0 0-2.48l-2.28-2.28 3.43-3.43a1.762 1.762 0 0 0 0-2.48l-6.61-6.61a1.8 1.8 0 0 0 -2.48 0l-3.43 3.43-2.28-2.29a1.762 1.762 0 0 0 -2.48 0l-.59.59a66.863 66.863 0 0 0 -28.39-12.86 1.752 1.752 0 0 0 -1.57 2.96l19.93 19.93-.22.22a1.735 1.735 0 0 0 -.5 1.4l.53 5.62-53.62 53.62a1.75 1.75 0 0 0 0 2.47l6.61 6.61a1.738 1.738 0 0 0 2.48 0l53.61-53.61 5.62.53a1.757 1.757 0 0 0 1.4-.5l.23-.23 11.37 11.38-2.82 2.82a1.733 1.733 0 0 0 -.51 1.23v13.2l-5.72 5.72h-14.45a1.747 1.747 0 0 0 -1.53.91l-9 16.42a1.726 1.726 0 0 0 .03 1.73 1.75 1.75 0 0 0 1.5.86h76.92a1.752 1.752 0 0 0 1.75-1.75v-59.31a1.752 1.752 0 0 0 -1.75-1.75zm-51.88-15.64 4.13 4.14-2.19 2.19-4.13-4.14zm-66.01 74.28-4.13-4.13 51.72-51.73 4.13 4.14zm63.33-53.81a1.75 1.75 0 0 0 -2.47 0l-.88.88-4.99-.47-5.72-5.72-.47-5 .87-.87a1.744 1.744 0 0 0 0-2.48l-16.76-16.76a63.276 63.276 0 0 1 22.1 11.67 1.751 1.751 0 0 0 2.35-.12l.46-.45 11.18 11.18-.46.46a1.759 1.759 0 0 0 -.12 2.34 63.225 63.225 0 0 1 10.49 18.53c.09.25.19.5.28.76.32.93.63 1.87.91 2.82zm52.81 54.48h-72.21l7.08-12.92h28.71a1.75 1.75 0 0 0 0-3.5h-10.36l3.77-3.76a1.739 1.739 0 0 0 .51-1.24v-13.19l2.31-2.3 6.08 6.08a1.764 1.764 0 0 0 2.95-1.57 67.189 67.189 0 0 0 -2.95-10.6l3.29-3.29h24.07a1.75 1.75 0 0 0 0-3.5h-3.19l6.01-6.02h3.93z" data-original="#000000" class="active-path" data-old_color="#000000" fill="#FF8B00"/><path d="m91.623 50.5a1.75 1.75 0 0 0 1.75-1.75v-5.23a1.75 1.75 0 0 0 -3.5 0v5.23a1.75 1.75 0 0 0 1.75 1.75z" data-original="#000000" class="active-path" data-old_color="#000000" fill="#FF8B00"/><path d="m66.665 66.559-5.053-1.359a1.75 1.75 0 1 0 -.906 3.381l5.053 1.354a1.75 1.75 0 0 0 .906-3.381z" data-original="#000000" class="active-path" data-old_color="#000000" fill="#FF8B00"/><path d="m58.335 75.058a1.75 1.75 0 0 0 1.75 1.75h5.23a1.75 1.75 0 0 0 0-3.5h-5.23a1.75 1.75 0 0 0 -1.75 1.75z" data-original="#000000" class="active-path" data-old_color="#000000" fill="#FF8B00"/><path d="m65.759 80.177-5.052 1.353a1.75 1.75 0 1 0 .905 3.381l5.053-1.354a1.75 1.75 0 0 0 -.906-3.381z" data-original="#000000" class="active-path" data-old_color="#000000" fill="#FF8B00"/><path d="m103.9 53.79a1.749 1.749 0 0 0 2.391-.641l2.615-4.53a1.75 1.75 0 0 0 -3.031-1.75l-2.615 4.53a1.75 1.75 0 0 0 .64 2.391z" data-original="#000000" class="active-path" data-old_color="#000000" fill="#FF8B00"/><path d="m97.979 51.337a1.748 1.748 0 0 0 2.144-1.238l1.354-5.053a1.75 1.75 0 1 0 -3.381-.905l-1.354 5.053a1.75 1.75 0 0 0 1.237 2.143z" data-original="#000000" class="active-path" data-old_color="#000000" fill="#FF8B00"/></g> </svg>
