<?xml version="1.0"?>
<svg xmlns="http://www.w3.org/2000/svg" id="Layer_2" height="512px" viewBox="0 0 128 128" width="512px" data-name="Layer 2"><g><path d="m82.75 95.782a6.177 6.177 0 1 0 6.177 6.177 6.184 6.184 0 0 0 -6.177-6.177zm0 8.854a2.677 2.677 0 1 1 2.677-2.677 2.68 2.68 0 0 1 -2.677 2.676z" data-original="#000000" class="active-path" data-old_color="#000000" fill="#FF8B00"/><path d="m45.25 95.782a6.177 6.177 0 1 0 6.177 6.177 6.184 6.184 0 0 0 -6.177-6.177zm0 8.854a2.677 2.677 0 1 1 2.677-2.677 2.68 2.68 0 0 1 -2.677 2.676z" data-original="#000000" class="active-path" data-old_color="#000000" fill="#FF8B00"/><path d="m126.25 111.64h-34.59a13.353 13.353 0 0 0 2.7-3.46h14.64a1.752 1.752 0 0 0 1.75-1.75v-8.94a1.746 1.746 0 0 0 -1.75-1.75h-8.33l9.24-42.38h7.76a1.752 1.752 0 0 0 1.75-1.75v-10.5a1.758 1.758 0 0 0 -1.75-1.75h-7.42v-14.12a1.744 1.744 0 0 0 -.94-1.55l-8.75-4.56-3.88-5.52a1.746 1.746 0 0 0 -1.43-.75h-12.25a1.78 1.78 0 0 0 -1.28.56l-5.06 5.41-14.53 4.5-12.06-7.69a1.723 1.723 0 0 0 -1.27-.24l-9.88 1.87a1.81 1.81 0 0 0 -1.12.73l-6.98 10.24-11.83 3.57a1.771 1.771 0 0 0 -1.24 1.68v5.87h-7.42a1.758 1.758 0 0 0 -1.75 1.75v10.5a1.752 1.752 0 0 0 1.75 1.75h7.76l9.24 42.38h-8.33a1.746 1.746 0 0 0 -1.75 1.75v8.94a1.752 1.752 0 0 0 1.75 1.75h14.64a13.353 13.353 0 0 0 2.7 3.46h-34.59a1.75 1.75 0 0 0 0 3.5h124.5a1.75 1.75 0 0 0 0-3.5zm-19-12.4v5.44h-11.6a13.469 13.469 0 0 0 0-5.44zm-29.11-77.2a1.735 1.735 0 0 0 .76-.48l4.86-5.2h10.58l3.6 5.14a1.732 1.732 0 0 0 .63.54l8.18 4.26v13.06h-29.83l-3.24-10.75a1.763 1.763 0 0 0 -1.05-1.13l-5.4-2.07zm-56.89 12.75 11.17-3.37a1.8 1.8 0 0 0 .94-.69l6.93-10.16 8.48-1.61 12.16 7.76a1.872 1.872 0 0 0 .32.15l9.32 3.57 2.7 8.92h-52.02zm-9.17 15.07v-7h103.84v7zm20.27 54.82h-11.6v-5.44h11.6a13.469 13.469 0 0 0 0 5.44zm1.99-10.1c-.01.01-.02.02-.02.03a13.124 13.124 0 0 0 -.69 1.13h-2.72l-9.24-42.38h84.66l-9.24 42.38h-2.72a13.124 13.124 0 0 0 -.69-1.13c0-.01-.01-.02-.02-.03a13.241 13.241 0 0 0 -2.39-2.67l6.53-29.92a1.763 1.763 0 0 0 -.35-1.47 1.725 1.725 0 0 0 -1.36-.66h-64.18a1.725 1.725 0 0 0 -1.36.66 1.763 1.763 0 0 0 -.35 1.47l6.53 29.92a13.241 13.241 0 0 0 -2.39 2.67zm35.51 10.1h-11.7a13.469 13.469 0 0 0 0-5.44h11.7c-.05.25-.08.51-.11.76a13.149 13.149 0 0 0 .11 4.68zm-12.98-8.94a13.178 13.178 0 0 0 -16.99-5.81l-.57-2.62h49.38l-.57 2.62a13.326 13.326 0 0 0 -16.99 5.81zm-18.33-11.93-1.84-8.47h54.6l-1.84 8.47zm-2.61-11.97-1.84-8.48h59.82l-1.84 8.48zm9.32 39.8a9.7 9.7 0 0 1 -9.62-8.62c-.03-.35-.06-.71-.06-1.06a9.68 9.68 0 1 1 9.68 9.68zm8.91 0a13.353 13.353 0 0 0 2.7-3.46h14.28a13.353 13.353 0 0 0 2.7 3.46zm28.59 0a9.7 9.7 0 0 1 -9.62-8.62c-.03-.35-.06-.71-.06-1.06a9.68 9.68 0 1 1 9.68 9.68z" data-original="#000000" class="active-path" data-old_color="#000000" fill="#FF8B00"/></g> </svg>
